<svg xmlns="http://www.w3.org/2000/svg" width="64" height="64" viewBox="0 0 64 64">
  <title>what's good icon</title>
  <g stroke="#000000" stroke-linecap="round" stroke-linejoin="round">
    <rect fill="#000" x="8" y="8" width="48" height="48" stroke-width="16" />
    <g fill="#fff">
      <g stroke-width="8" opacity="0.75">
        <path d="m60,32l-14,8l0,16l14,-8l0,-16z" />
        <path d="m18,8l0,16l-14,8l0,-16l14,-8z" />
        <path d="m4,32l14,8l0,16l-14,-8l0,-16z" />
        <path d="m46,8l14,8l0,16l-14,-8l0,-16z" />
        <path d="m32,48l-14,8l14,8l14,-8l-14,-8z" />
        <path d="m32,16l14,-8l-14,-8l-14,8l14,8z" />
      </g>
      <g stroke-width="0">
        <path d="m60,32l-42,-24l0,48l42,-24z" />
        <path d="m4,32l42,-24l0,48l-42,-24z" />
      </g>
    </g>
  </g>
</svg>
